<?xml version="1.0" standalone="no"?>
<!DOCTYPE svg PUBLIC "-//W3C//DTD SVG 20010904//EN"
 "http://www.w3.org/TR/2001/REC-SVG-20010904/DTD/svg10.dtd">
<svg version="1.0" xmlns="http://www.w3.org/2000/svg"
 width="512.000000pt" height="512.000000pt" viewBox="0 0 512.000000 512.000000"
 preserveAspectRatio="xMidYMid meet">
<metadata>
Created by potrace 1.14, written by Peter Selinger 2001-2017
</metadata>
<g transform="translate(0.000000,512.000000) scale(0.100000,-0.100000)"
fill="#000000" stroke="none">
<path d="M155 5095 l-25 -24 0 -2511 0 -2511 25 -24 24 -25 2381 0 2381 0 24
25 25 24 0 2511 0 2511 -25 24 -24 25 -2381 0 -2381 0 -24 -25z m4655 -2535
l0 -2390 -2250 0 -2250 0 0 2390 0 2390 2250 0 2250 0 0 -2390z"/>
<path d="M567 4673 c-4 -3 -7 -269 -7 -590 l0 -583 2000 0 2000 0 -2 588 -3
587 -1991 3 c-1095 1 -1994 -1 -1997 -5z"/>
<path d="M567 3143 c-4 -3 -7 -269 -7 -590 l0 -583 2000 0 2000 0 -2 588 -3
587 -1991 3 c-1095 1 -1994 -1 -1997 -5z"/>
<path d="M560 1030 l0 -590 915 0 915 0 0 590 0 590 -915 0 -915 0 0 -590z"/>
<path d="M2730 1030 l0 -590 915 0 915 0 0 590 0 590 -915 0 -915 0 0 -590z"/>
</g>
</svg>
